<svg id="visual" viewBox="0 0 900 600" width="900" height="600" xmlns="http://www.w3.org/2000/svg" xmlns:xlink="http://www.w3.org/1999/xlink" version="1.1"><g stroke-width="1" stroke-linejoin="bevel"><path d="M366 329L397 195L313 265Z" fill="#fd681e" stroke="#fd681e"></path><path d="M397 195L306 185L313 265Z" fill="#fd681e" stroke="#fd681e"></path><path d="M397 195L370 129L306 185Z" fill="#ff0000" stroke="#ff0000"></path><path d="M535 337L506 173L397 195Z" fill="#faab62" stroke="#faab62"></path><path d="M397 195L506 173L370 129Z" fill="#fe480b" stroke="#fe480b"></path><path d="M306 185L219 273L313 265Z" fill="#fabd7d" stroke="#fabd7d"></path><path d="M313 265L296 407L366 329Z" fill="#fc8133" stroke="#fc8133"></path><path d="M296 407L400 427L366 329Z" fill="#ff0000" stroke="#ff0000"></path><path d="M366 329L535 337L397 195Z" fill="#fd681e" stroke="#fd681e"></path><path d="M224 392L296 407L313 265Z" fill="#fceed8" stroke="#fceed8"></path><path d="M370 129L298 115L306 185Z" fill="#fceed8" stroke="#fceed8"></path><path d="M306 185L166 187L219 273Z" fill="#fd681e" stroke="#fd681e"></path><path d="M520 394L535 337L366 329Z" fill="#ff0000" stroke="#ff0000"></path><path d="M400 427L520 394L366 329Z" fill="#fffdf9" stroke="#fffdf9"></path><path d="M219 273L224 392L313 265Z" fill="#ff0000" stroke="#ff0000"></path><path d="M296 407L401 484L400 427Z" fill="#fffdf9" stroke="#fffdf9"></path><path d="M400 427L489 496L520 394Z" fill="#fd681e" stroke="#fd681e"></path><path d="M319 539L401 484L296 407Z" fill="#faab62" stroke="#faab62"></path><path d="M577 106L539 100L506 173Z" fill="#fc8133" stroke="#fc8133"></path><path d="M506 173L539 100L370 129Z" fill="#fceed8" stroke="#fceed8"></path><path d="M370 129L376 0L298 115Z" fill="#fd681e" stroke="#fd681e"></path><path d="M186 110L166 187L306 185Z" fill="#fabd7d" stroke="#fabd7d"></path><path d="M219 273L100 295L224 392Z" fill="#fc8133" stroke="#fc8133"></path><path d="M520 394L602 375L535 337Z" fill="#f9cf9a" stroke="#f9cf9a"></path><path d="M628 200L577 106L506 173Z" fill="#fabd7d" stroke="#fabd7d"></path><path d="M589 521L602 375L520 394Z" fill="#fadfb8" stroke="#fadfb8"></path><path d="M298 115L186 110L306 185Z" fill="#fadfb8" stroke="#fadfb8"></path><path d="M278 0L186 110L298 115Z" fill="#fb9749" stroke="#fb9749"></path><path d="M628 200L506 173L535 337Z" fill="#fb9749" stroke="#fb9749"></path><path d="M632 317L628 200L535 337Z" fill="#ff0000" stroke="#ff0000"></path><path d="M602 375L632 317L535 337Z" fill="#fc8133" stroke="#fc8133"></path><path d="M401 484L489 496L400 427Z" fill="#f9cf9a" stroke="#f9cf9a"></path><path d="M122 473L225 468L224 392Z" fill="#fc8133" stroke="#fc8133"></path><path d="M224 392L225 468L296 407Z" fill="#fb9749" stroke="#fb9749"></path><path d="M401 484L392 600L489 496Z" fill="#fe480b" stroke="#fe480b"></path><path d="M530 0L376 0L539 100Z" fill="#fc8133" stroke="#fc8133"></path><path d="M539 100L376 0L370 129Z" fill="#ff0000" stroke="#ff0000"></path><path d="M376 0L278 0L298 115Z" fill="#faab62" stroke="#faab62"></path><path d="M60 187L100 295L166 187Z" fill="#fb9749" stroke="#fb9749"></path><path d="M166 187L100 295L219 273Z" fill="#fabd7d" stroke="#fabd7d"></path><path d="M225 468L319 539L296 407Z" fill="#fadfb8" stroke="#fadfb8"></path><path d="M622 0L530 0L577 106Z" fill="#fceed8" stroke="#fceed8"></path><path d="M577 106L530 0L539 100Z" fill="#fadfb8" stroke="#fadfb8"></path><path d="M681 509L682 360L602 375Z" fill="#fabd7d" stroke="#fabd7d"></path><path d="M602 375L682 360L632 317Z" fill="#fe480b" stroke="#fe480b"></path><path d="M632 317L714 270L628 200Z" fill="#f9cf9a" stroke="#f9cf9a"></path><path d="M278 0L197 0L186 110Z" fill="#ff0000" stroke="#ff0000"></path><path d="M64 125L60 187L166 187Z" fill="#fc8133" stroke="#fc8133"></path><path d="M100 295L89 401L224 392Z" fill="#fadfb8" stroke="#fadfb8"></path><path d="M230 600L325 600L319 539Z" fill="#fd681e" stroke="#fd681e"></path><path d="M64 125L166 187L186 110Z" fill="#fe480b" stroke="#fe480b"></path><path d="M100 295L0 277L89 401Z" fill="#fceed8" stroke="#fceed8"></path><path d="M489 496L589 521L520 394Z" fill="#ff0000" stroke="#ff0000"></path><path d="M509 600L589 521L489 496Z" fill="#fc8133" stroke="#fc8133"></path><path d="M682 360L714 270L632 317Z" fill="#fd681e" stroke="#fd681e"></path><path d="M628 200L680 77L577 106Z" fill="#f9cf9a" stroke="#f9cf9a"></path><path d="M89 401L122 473L224 392Z" fill="#fabd7d" stroke="#fabd7d"></path><path d="M325 600L392 600L319 539Z" fill="#fadfb8" stroke="#fadfb8"></path><path d="M319 539L392 600L401 484Z" fill="#ff0000" stroke="#ff0000"></path><path d="M230 600L319 539L225 468Z" fill="#fd681e" stroke="#fd681e"></path><path d="M714 270L724 238L628 200Z" fill="#fd681e" stroke="#fd681e"></path><path d="M101 0L64 125L186 110Z" fill="#fb9749" stroke="#fb9749"></path><path d="M761 111L680 77L628 200Z" fill="#fabd7d" stroke="#fabd7d"></path><path d="M680 77L622 0L577 106Z" fill="#fb9749" stroke="#fb9749"></path><path d="M392 600L509 600L489 496Z" fill="#fceed8" stroke="#fceed8"></path><path d="M136 600L230 600L225 468Z" fill="#fe480b" stroke="#fe480b"></path><path d="M714 270L760 289L724 238Z" fill="#fd681e" stroke="#fd681e"></path><path d="M724 238L761 111L628 200Z" fill="#fffdf9" stroke="#fffdf9"></path><path d="M682 360L760 289L714 270Z" fill="#ff0000" stroke="#ff0000"></path><path d="M773 404L760 289L682 360Z" fill="#faab62" stroke="#faab62"></path><path d="M0 236L0 277L100 295Z" fill="#fffdf9" stroke="#fffdf9"></path><path d="M89 401L0 478L122 473Z" fill="#fadfb8" stroke="#fadfb8"></path><path d="M0 236L100 295L60 187Z" fill="#fabd7d" stroke="#fabd7d"></path><path d="M0 106L0 236L60 187Z" fill="#f9cf9a" stroke="#f9cf9a"></path><path d="M197 0L101 0L186 110Z" fill="#fe480b" stroke="#fe480b"></path><path d="M64 125L0 106L60 187Z" fill="#fe480b" stroke="#fe480b"></path><path d="M624 600L681 509L589 521Z" fill="#fceed8" stroke="#fceed8"></path><path d="M589 521L681 509L602 375Z" fill="#fc8133" stroke="#fc8133"></path><path d="M761 111L685 0L680 77Z" fill="#f9cf9a" stroke="#f9cf9a"></path><path d="M680 77L685 0L622 0Z" fill="#fceed8" stroke="#fceed8"></path><path d="M806 230L761 111L724 238Z" fill="#fffdf9" stroke="#fffdf9"></path><path d="M101 0L0 106L64 125Z" fill="#faab62" stroke="#faab62"></path><path d="M0 277L0 425L89 401Z" fill="#fadfb8" stroke="#fadfb8"></path><path d="M122 473L136 600L225 468Z" fill="#fc8133" stroke="#fc8133"></path><path d="M509 600L624 600L589 521Z" fill="#fb9749" stroke="#fb9749"></path><path d="M839 514L773 404L681 509Z" fill="#fadfb8" stroke="#fadfb8"></path><path d="M681 509L773 404L682 360Z" fill="#fffdf9" stroke="#fffdf9"></path><path d="M760 289L806 230L724 238Z" fill="#fb9749" stroke="#fb9749"></path><path d="M0 600L136 600L122 473Z" fill="#fb9749" stroke="#fb9749"></path><path d="M900 306L806 230L760 289Z" fill="#fabd7d" stroke="#fabd7d"></path><path d="M0 425L0 478L89 401Z" fill="#fffdf9" stroke="#fffdf9"></path><path d="M101 0L0 0L0 106Z" fill="#fc8133" stroke="#fc8133"></path><path d="M624 600L725 600L681 509Z" fill="#fabd7d" stroke="#fabd7d"></path><path d="M900 107L801 0L761 111Z" fill="#f9cf9a" stroke="#f9cf9a"></path><path d="M761 111L801 0L685 0Z" fill="#fb9749" stroke="#fb9749"></path><path d="M0 478L0 600L122 473Z" fill="#ff0000" stroke="#ff0000"></path><path d="M900 363L900 306L760 289Z" fill="#fadfb8" stroke="#fadfb8"></path><path d="M806 230L900 196L761 111Z" fill="#ff0000" stroke="#ff0000"></path><path d="M900 363L760 289L773 404Z" fill="#fb9749" stroke="#fb9749"></path><path d="M725 600L839 514L681 509Z" fill="#fabd7d" stroke="#fabd7d"></path><path d="M900 306L900 196L806 230Z" fill="#faab62" stroke="#faab62"></path><path d="M839 514L900 363L773 404Z" fill="#ff0000" stroke="#ff0000"></path><path d="M725 600L802 600L839 514Z" fill="#faab62" stroke="#faab62"></path><path d="M900 196L900 107L761 111Z" fill="#faab62" stroke="#faab62"></path><path d="M900 600L900 518L839 514Z" fill="#faab62" stroke="#faab62"></path><path d="M839 514L900 518L900 363Z" fill="#fc8133" stroke="#fc8133"></path><path d="M900 107L900 0L801 0Z" fill="#faab62" stroke="#faab62"></path><path d="M802 600L900 600L839 514Z" fill="#f9cf9a" stroke="#f9cf9a"></path></g></svg>